<?xml version="1.0" encoding="UTF-8" standalone="no"?>
<!-- Created with Inkscape (http://www.inkscape.org/) -->

<svg
   xmlns:dc="http://purl.org/dc/elements/1.1/"
   xmlns:cc="http://creativecommons.org/ns#"
   xmlns:rdf="http://www.w3.org/1999/02/22-rdf-syntax-ns#"
   xmlns:svg="http://www.w3.org/2000/svg"
   xmlns="http://www.w3.org/2000/svg"
   xmlns:xlink="http://www.w3.org/1999/xlink"
   xmlns:sodipodi="http://sodipodi.sourceforge.net/DTD/sodipodi-0.dtd"
   xmlns:inkscape="http://www.inkscape.org/namespaces/inkscape"
   width="48"
   height="48"
   viewBox="0 0 48.000001 48.000001"
   id="svg4230"
   version="1.1"
   inkscape:version="0.91 r13725"
   sodipodi:docname="fdroid-logo-privileged.svg">
  <defs
     id="defs4232">
    <linearGradient
       inkscape:collect="always"
       id="linearGradient5212">
      <stop
         style="stop-color:#ffffff;stop-opacity:0.09803922"
         offset="0"
         id="stop5214" />
      <stop
         style="stop-color:#ffffff;stop-opacity:0"
         offset="1"
         id="stop5216" />
    </linearGradient>
    <filter
       inkscape:collect="always"
       style="color-interpolation-filters:sRGB"
       id="filter4327"
       x="-0.021789474"
       width="1.0435789"
       y="-0.026709677"
       height="1.0534194">
      <feGaussianBlur
         inkscape:collect="always"
         stdDeviation="0.345"
         id="feGaussianBlur4329" />
    </filter>
    <radialGradient
       inkscape:collect="always"
       xlink:href="#linearGradient5212"
       id="radialGradient4337"
       cx="1.7439547"
       cy="1020.012"
       fx="1.7439547"
       fy="1020.012"
       r="19"
       gradientTransform="matrix(-2.7699909e-6,1.6315779,-2,-3.3954749e-6,2045.0241,1016.5203)"
       gradientUnits="userSpaceOnUse" />
    <radialGradient
       inkscape:collect="always"
       xlink:href="#linearGradient5212"
       id="radialGradient4339"
       gradientUnits="userSpaceOnUse"
       gradientTransform="matrix(1,0,0,0.81578947,0,190.63251)"
       cx="24"
       cy="1034.8622"
       fx="24"
       fy="1034.8622"
       r="19" />
  </defs>
  <sodipodi:namedview
     id="base"
     pagecolor="#ffffff"
     bordercolor="#666666"
     borderopacity="1.0"
     inkscape:pageopacity="0.0"
     inkscape:pageshadow="2"
     inkscape:zoom="11.313708"
     inkscape:cx="28.641246"
     inkscape:cy="22.821455"
     inkscape:document-units="px"
     inkscape:current-layer="layer1"
     showgrid="true"
     units="px"
     inkscape:window-width="1920"
     inkscape:window-height="1009"
     inkscape:window-x="0"
     inkscape:window-y="34"
     inkscape:window-maximized="1"
     gridtolerance="10000" />
  <metadata
     id="metadata4235">
    <rdf:RDF>
      <cc:Work
         rdf:about="">
        <dc:format>image/svg+xml</dc:format>
        <dc:type
           rdf:resource="http://purl.org/dc/dcmitype/StillImage" />
        <dc:title></dc:title>
        <cc:license
           rdf:resource="http://creativecommons.org/licenses/by-sa/3.0/" />
      </cc:Work>
      <cc:License
         rdf:about="http://creativecommons.org/licenses/by-sa/3.0/">
        <cc:permits
           rdf:resource="http://creativecommons.org/ns#Reproduction" />
        <cc:permits
           rdf:resource="http://creativecommons.org/ns#Distribution" />
        <cc:requires
           rdf:resource="http://creativecommons.org/ns#Notice" />
        <cc:requires
           rdf:resource="http://creativecommons.org/ns#Attribution" />
        <cc:permits
           rdf:resource="http://creativecommons.org/ns#DerivativeWorks" />
        <cc:requires
           rdf:resource="http://creativecommons.org/ns#ShareAlike" />
      </cc:License>
    </rdf:RDF>
  </metadata>
  <g
     inkscape:label="Layer 1"
     inkscape:groupmode="layer"
     id="layer1"
     transform="translate(0,-1004.3622)">
    <g
       id="g4323"
       style="fill:#263237;fill-opacity:0.4;filter:url(#filter4327)"
       transform="translate(0,-6.2499999)">
      <path
         d="m 8,1024.3622 32,0 c 1.662,0 3,1.338 3,3 l 0,20 c 0,1.662 -1.338,3 -3,3 l -32,0 c -1.662,0 -3,-1.338 -3,-3 l 0,-20 c 0,-1.662 1.338,-3 3,-3 z m 3,-5 8.5,0 c 0.831,0 1.5,0.7805 1.5,1.75 l 0,3.5 c 0,0.9695 -0.669,1.75 -1.5,1.75 l -8.5,0 c -0.831,0 -1.5,-0.7805 -1.5,-1.75 l 0,-3.5 c 0,-0.9695 0.669,-1.75 1.5,-1.75 z m 18,0 8.5,0 c 0.831,0 1.5,0.7805 1.5,1.75 l 0,3.5 c 0,0.9695 -0.669,1.75 -1.5,1.75 l -8.5,0 c -0.831,0 -1.5,-0.7805 -1.5,-1.75 l 0,-3.5 c 0,-0.9695 0.669,-1.75 1.5,-1.75 z"
         style="opacity:1;fill:#263237;fill-opacity:0.4;stroke:none;stroke-width:3;stroke-linecap:round;stroke-linejoin:miter;stroke-miterlimit:3;stroke-dasharray:none;stroke-dashoffset:0;stroke-opacity:1"
         id="path4325"
         inkscape:connector-curvature="0" />
    </g>
    <g
       id="g4236"
       transform="translate(0,-6.9999999)">
      <g
         transform="translate(18.5,0)"
         id="g4216">
        <rect
           rx="1.5"
           ry="1.5"
           y="1019.3622"
           x="9"
           height="6"
           width="11.5"
           id="rect4218"
           style="opacity:1;fill:#4791db;fill-opacity:1;stroke:none;stroke-width:2.5;stroke-linecap:round;stroke-linejoin:round;stroke-miterlimit:4;stroke-dasharray:none;stroke-dashoffset:0;stroke-opacity:1" />
        <rect
           style="opacity:1;fill:#1976d2;fill-opacity:1;stroke:none;stroke-width:2.5;stroke-linecap:round;stroke-linejoin:round;stroke-miterlimit:4;stroke-dasharray:none;stroke-dashoffset:0;stroke-opacity:1"
           id="rect4220"
           width="11.5"
           height="6"
           x="9"
           y="1020.3622"
           ry="1.5"
           rx="1.5" />
      </g>
      <g
         transform="translate(0.5,0)"
         id="g4212">
        <rect
           style="opacity:1;fill:#4791db;fill-opacity:1;stroke:none;stroke-width:2.5;stroke-linecap:round;stroke-linejoin:round;stroke-miterlimit:4;stroke-dasharray:none;stroke-dashoffset:0;stroke-opacity:1"
           id="rect4208"
           width="11.5"
           height="6"
           x="9"
           y="1019.3622"
           ry="1.5"
           rx="1.5" />
        <rect
           rx="1.5"
           ry="1.5"
           y="1020.3622"
           x="9"
           height="6"
           width="11.5"
           id="rect4210"
           style="opacity:1;fill:#1976d2;fill-opacity:1;stroke:none;stroke-width:2.5;stroke-linecap:round;stroke-linejoin:round;stroke-miterlimit:4;stroke-dasharray:none;stroke-dashoffset:0;stroke-opacity:1" />
      </g>
      <g
         id="g4979">
        <rect
           style="opacity:1;fill:#1976d2;fill-opacity:1;stroke:none;stroke-width:3;stroke-linecap:round;stroke-linejoin:miter;stroke-miterlimit:3;stroke-dasharray:none;stroke-dashoffset:0;stroke-opacity:1"
           id="rect4146"
           width="38"
           height="26"
           x="5"
           y="1024.3622"
           rx="3"
           ry="3" />
        <rect
           ry="3"
           rx="3"
           y="1037.3622"
           x="5"
           height="13"
           width="38"
           id="rect4973"
           style="opacity:1;fill:#263238;fill-opacity:0.2;stroke:none;stroke-width:3;stroke-linecap:round;stroke-linejoin:miter;stroke-miterlimit:3;stroke-dasharray:none;stroke-dashoffset:0;stroke-opacity:1" />
        <rect
           ry="3"
           rx="3"
           y="1024.3622"
           x="5"
           height="13"
           width="38"
           id="rect4975"
           style="opacity:1;fill:#ffffff;fill-opacity:0.2;stroke:none;stroke-width:3;stroke-linecap:round;stroke-linejoin:miter;stroke-miterlimit:3;stroke-dasharray:none;stroke-dashoffset:0;stroke-opacity:1" />
        <rect
           ry="2.7692308"
           rx="3"
           y="1025.3622"
           x="5"
           height="24"
           width="38"
           id="rect4977"
           style="opacity:1;fill:#1976d2;fill-opacity:1;stroke:none;stroke-width:3;stroke-linecap:round;stroke-linejoin:miter;stroke-miterlimit:3;stroke-dasharray:none;stroke-dashoffset:0;stroke-opacity:1" />
      </g>
      <g
         id="g4192"
         transform="matrix(0.9,0,0,0.9,3.3,104.18622)">
        <path
           inkscape:connector-curvature="0"
           id="path4175"
           d="m 13.5,1033.2511 20,0"
           style="fill:none;fill-rule:evenodd;stroke:#0d47a1;stroke-width:2.77777767;stroke-linecap:butt;stroke-linejoin:miter;stroke-miterlimit:4;stroke-dasharray:none;stroke-opacity:1" />
        <path
           inkscape:connector-curvature="0"
           id="path4177"
           d="m 12.444444,1040.4733 20,0"
           style="fill:none;fill-opacity:1;fill-rule:evenodd;stroke:#0d47a1;stroke-width:2.77777767;stroke-linecap:butt;stroke-linejoin:miter;stroke-miterlimit:4;stroke-dasharray:none;stroke-opacity:1" />
        <path
           sodipodi:nodetypes="ccccc"
           inkscape:connector-curvature="0"
           id="path4186"
           d="m 19,1026.8622 -3,20 2.844444,0 3,-20 z"
           style="color:#000000;font-style:normal;font-variant:normal;font-weight:normal;font-stretch:normal;font-size:medium;line-height:normal;font-family:sans-serif;text-indent:0;text-align:start;text-decoration:none;text-decoration-line:none;text-decoration-style:solid;text-decoration-color:#000000;letter-spacing:normal;word-spacing:normal;text-transform:none;direction:ltr;block-progression:tb;writing-mode:lr-tb;baseline-shift:baseline;text-anchor:start;white-space:normal;clip-rule:nonzero;display:inline;overflow:visible;visibility:visible;opacity:1;isolation:auto;mix-blend-mode:normal;color-interpolation:sRGB;color-interpolation-filters:linearRGB;solid-color:#000000;solid-opacity:1;fill:#0d47a1;fill-opacity:1;fill-rule:evenodd;stroke:none;stroke-width:2;stroke-linecap:butt;stroke-linejoin:miter;stroke-miterlimit:4;stroke-dasharray:none;stroke-dashoffset:0;stroke-opacity:0.42519687;color-rendering:auto;image-rendering:auto;shape-rendering:auto;text-rendering:auto;enable-background:accumulate" />
        <path
           style="color:#000000;font-style:normal;font-variant:normal;font-weight:normal;font-stretch:normal;font-size:medium;line-height:normal;font-family:sans-serif;text-indent:0;text-align:start;text-decoration:none;text-decoration-line:none;text-decoration-style:solid;text-decoration-color:#000000;letter-spacing:normal;word-spacing:normal;text-transform:none;direction:ltr;block-progression:tb;writing-mode:lr-tb;baseline-shift:baseline;text-anchor:start;white-space:normal;clip-rule:nonzero;display:inline;overflow:visible;visibility:visible;opacity:1;isolation:auto;mix-blend-mode:normal;color-interpolation:sRGB;color-interpolation-filters:linearRGB;solid-color:#000000;solid-opacity:1;fill:#0d47a1;fill-opacity:1;fill-rule:evenodd;stroke:none;stroke-width:2;stroke-linecap:butt;stroke-linejoin:miter;stroke-miterlimit:4;stroke-dasharray:none;stroke-dashoffset:0;stroke-opacity:0.42519687;color-rendering:auto;image-rendering:auto;shape-rendering:auto;text-rendering:auto;enable-background:accumulate"
           d="m 26.777778,1026.8622 -3,20 2.844444,0 3,-20 z"
           id="path4173"
           inkscape:connector-curvature="0"
           sodipodi:nodetypes="ccccc" />
      </g>
    </g>
    <g
       transform="translate(0,-6.9999825)"
       style="fill:url(#radialGradient4337);fill-opacity:1"
       id="g4311">
      <path
         id="rect4317"
         style="opacity:1;fill:url(#radialGradient4339);fill-opacity:1;stroke:none;stroke-width:3;stroke-linecap:round;stroke-linejoin:miter;stroke-miterlimit:3;stroke-dasharray:none;stroke-dashoffset:0;stroke-opacity:1"
         d="m 8,1024.3622 32,0 c 1.662,0 3,1.338 3,3 l 0,20 c 0,1.662 -1.338,3 -3,3 l -32,0 c -1.662,0 -3,-1.338 -3,-3 l 0,-20 c 0,-1.662 1.338,-3 3,-3 z m 3,-5 8.5,0 c 0.831,0 1.5,0.7805 1.5,1.75 l 0,3.5 c 0,0.9695 -0.669,1.75 -1.5,1.75 l -8.5,0 c -0.831,0 -1.5,-0.7805 -1.5,-1.75 l 0,-3.5 c 0,-0.9695 0.669,-1.75 1.5,-1.75 z m 18,0 8.5,0 c 0.831,0 1.5,0.7805 1.5,1.75 l 0,3.5 c 0,0.9695 -0.669,1.75 -1.5,1.75 l -8.5,0 c -0.831,0 -1.5,-0.7805 -1.5,-1.75 l 0,-3.5 c 0,-0.9695 0.669,-1.75 1.5,-1.75 z"
         inkscape:connector-curvature="0" />
    </g>
  </g>
</svg>
