<?xml version="1.0" encoding="UTF-8" standalone="no"?>
<!-- Created with Inkscape (http://www.inkscape.org/) -->

<svg
   xmlns:dc="http://purl.org/dc/elements/1.1/"
   xmlns:cc="http://creativecommons.org/ns#"
   xmlns:rdf="http://www.w3.org/1999/02/22-rdf-syntax-ns#"
   xmlns:svg="http://www.w3.org/2000/svg"
   xmlns="http://www.w3.org/2000/svg"
   xmlns:xlink="http://www.w3.org/1999/xlink"
   xmlns:sodipodi="http://sodipodi.sourceforge.net/DTD/sodipodi-0.dtd"
   xmlns:inkscape="http://www.inkscape.org/namespaces/inkscape"
   width="48"
   height="48"
   viewBox="0 0 48.000001 48.000001"
   id="svg4230"
   version="1.1"
   inkscape:version="0.48.5 r10040"
   sodipodi:docname="fdroid-logo-privileged.svg"
   inkscape:export-filename="/home/schuerm/Projekte/F-Droid/fdroidclient/F-Droid-Privileged/src/main/res/drawable-xxxhdpi/ic_launcher.png"
   inkscape:export-xdpi="360"
   inkscape:export-ydpi="360">
  <defs
     id="defs4232">
    <linearGradient
       inkscape:collect="always"
       id="linearGradient5212">
      <stop
         style="stop-color:#ffffff;stop-opacity:0.09803922"
         offset="0"
         id="stop5214" />
      <stop
         style="stop-color:#ffffff;stop-opacity:0"
         offset="1"
         id="stop5216" />
    </linearGradient>
    <radialGradient
       inkscape:collect="always"
       xlink:href="#linearGradient5212"
       id="radialGradient5220"
       cx="-98.23381"
       cy="3.4695871"
       fx="-98.23381"
       fy="3.4695871"
       r="22.671185"
       gradientTransform="matrix(0,1.5082874,-1.6170977,3.0386328e-8,6.9414178,1153.7641)"
       gradientUnits="userSpaceOnUse" />
    <filter
       inkscape:collect="always"
       style="color-interpolation-filters:sRGB"
       id="filter4175"
       x="-0.023846937"
       width="1.0476939"
       y="-0.02415504"
       height="1.0483101">
      <feGaussianBlur
         inkscape:collect="always"
         stdDeviation="0.45053152"
         id="feGaussianBlur4177" />
    </filter>
  </defs>
  <sodipodi:namedview
     id="base"
     pagecolor="#ffffff"
     bordercolor="#666666"
     borderopacity="1.0"
     inkscape:pageopacity="0.0"
     inkscape:pageshadow="2"
     inkscape:zoom="5.656854"
     inkscape:cx="35.90784"
     inkscape:cy="40.28609"
     inkscape:document-units="px"
     inkscape:current-layer="layer1"
     showgrid="true"
     units="px"
     inkscape:window-width="1918"
     inkscape:window-height="1179"
     inkscape:window-x="0"
     inkscape:window-y="19"
     inkscape:window-maximized="1"
     gridtolerance="10000" />
  <metadata
     id="metadata4235">
    <rdf:RDF>
      <cc:Work
         rdf:about="">
        <dc:format>image/svg+xml</dc:format>
        <dc:type
           rdf:resource="http://purl.org/dc/dcmitype/StillImage" />
        <dc:title></dc:title>
        <cc:license
           rdf:resource="http://creativecommons.org/licenses/by-sa/3.0/" />
      </cc:Work>
      <cc:License
         rdf:about="http://creativecommons.org/licenses/by-sa/3.0/">
        <cc:permits
           rdf:resource="http://creativecommons.org/ns#Reproduction" />
        <cc:permits
           rdf:resource="http://creativecommons.org/ns#Distribution" />
        <cc:requires
           rdf:resource="http://creativecommons.org/ns#Notice" />
        <cc:requires
           rdf:resource="http://creativecommons.org/ns#Attribution" />
        <cc:permits
           rdf:resource="http://creativecommons.org/ns#DerivativeWorks" />
        <cc:requires
           rdf:resource="http://creativecommons.org/ns#ShareAlike" />
      </cc:License>
    </rdf:RDF>
  </metadata>
  <g
     inkscape:label="Layer 1"
     inkscape:groupmode="layer"
     id="layer1"
     transform="translate(0,-1004.3622)">
    <path
       style="font-size:medium;font-style:normal;font-variant:normal;font-weight:normal;font-stretch:normal;text-indent:0;text-align:start;text-decoration:none;line-height:normal;letter-spacing:normal;word-spacing:normal;text-transform:none;direction:ltr;block-progression:tb;writing-mode:lr-tb;text-anchor:start;baseline-shift:baseline;color:#000000;fill:#263238;fill-opacity:0.4;fill-rule:evenodd;stroke:none;visibility:visible;display:inline;overflow:visible;filter:url(#filter4175);enable-background:accumulate;font-family:sans-serif"
       d="m 2.613462,1006.3488 a 1.250125,1.250125 0 0 0 -1.01172,2.0293 l 3.60351,4.6641 c -0.12699,0.3331 -0.20312,0.6915 -0.20312,1.0703 l 0,4 0,2.8652 0,0.1348 c 0,1.662 1.338,3 3,3 l 32,0 c 1.662,0 3,-1.338 3,-3 l 0,-4 0,-2.8652 0,-0.1348 c 0,-0.3803 -0.0771,-0.74 -0.20508,-1.0742 l 3.60156,-4.6602 a 1.250125,1.250125 0 0 0 -1.04882,-2.0273 1.250125,1.250125 0 0 0 -0.92969,0.498 l -3.43164,4.4414 c -0.31022,-0.1079 -0.63841,-0.1777 -0.98633,-0.1777 l -32,0 c -0.34857,0 -0.67757,0.069 -0.98828,0.1777 l -3.4336,-4.4414 a 1.250125,1.250125 0 0 0 -0.96679,-0.5 z m 5.38867,18.7637 c -0.20775,0 -0.40983,0.021 -0.60547,0.061 -1.36951,0.2761 -2.39453,1.4698 -2.39453,2.9101 l 0,0.029 0,19.7793 0,0.029 0,0.1914 c 0,1.662 1.338,3 3,3 l 32,0 c 1.662,0 3,-1.338 3,-3 l 0,-20 0,-0.029 c 0,-1.4403 -1.02502,-2.634 -2.39453,-2.9101 -0.19565,-0.039 -0.39772,-0.061 -0.60547,-0.061 l -32,0 z"
       id="path4192"
       inkscape:connector-curvature="0"
       transform="matrix(0.7637817,0,0,0.7637817,0.31389533,237.54071)" />
    <g
       id="g5012"
       transform="matrix(0.7637817,0,0,0.7637817,0.31389533,237.54071)">
      <g
         id="g4179"
         transform="matrix(-1,0,0,1,47.999779,0)">
        <path
           style="fill:#8ab000;fill-opacity:1;fill-rule:evenodd;stroke:#769616;stroke-width:2.5;stroke-linecap:round;stroke-linejoin:miter;stroke-miterlimit:4;stroke-opacity:1;stroke-dasharray:none"
           d="m 2.5889342,1006.8622 4.25,5.5"
           id="path4181"
           inkscape:connector-curvature="0"
           sodipodi:nodetypes="cc" />
        <path
           sodipodi:nodetypes="cccccc"
           inkscape:connector-curvature="0"
           id="path4183"
           d="m 2.6113281,1005.6094 c -0.4534623,0.012 -0.7616975,0.189 -0.9807462,0.4486 2.0269314,2.4089 2.368401,2.7916 5.1354735,6.2214 1.0195329,1.319 2.0816026,0.6373 1.0620696,-0.6817 l -4.25,-5.5 c -0.2289894,-0.3056 -0.5850813,-0.478 -0.9667969,-0.4883 z"
           style="font-size:medium;font-style:normal;font-variant:normal;font-weight:normal;font-stretch:normal;text-indent:0;text-align:start;text-decoration:none;line-height:normal;letter-spacing:normal;word-spacing:normal;text-transform:none;direction:ltr;block-progression:tb;writing-mode:lr-tb;text-anchor:start;baseline-shift:baseline;color:#000000;fill:#ffffff;fill-opacity:0.29803922;fill-rule:evenodd;stroke:none;visibility:visible;display:inline;overflow:visible;enable-background:accumulate;font-family:sans-serif" />
        <path
           sodipodi:nodetypes="ccccc"
           inkscape:connector-curvature="0"
           id="path4185"
           d="m 1.6220992,1006.0705 c -0.1238933,0.1479 -0.561176,0.8046 -0.02249,1.5562 l 4.25,5.5 c 1.0195329,1.319 1.1498748,-0.6123 1.1498748,-0.6123 0,0 -3.7344514,-4.51 -5.3773848,-6.4439 z"
           style="font-size:medium;font-style:normal;font-variant:normal;font-weight:normal;font-stretch:normal;text-indent:0;text-align:start;text-decoration:none;line-height:normal;letter-spacing:normal;word-spacing:normal;text-transform:none;direction:ltr;block-progression:tb;writing-mode:lr-tb;text-anchor:start;baseline-shift:baseline;color:#000000;fill:#263238;fill-opacity:0.2;fill-rule:evenodd;stroke:none;visibility:visible;display:inline;overflow:visible;enable-background:accumulate;font-family:sans-serif" />
        <path
           sodipodi:nodetypes="cscccc"
           inkscape:connector-curvature="0"
           id="path4187"
           d="m 2.3378905,1005.8443 c -0.438175,0 -0.959862,0.1416 -0.8242183,0.7986 0.103561,0.5016 4.6608262,6.0744 4.6608262,6.0744 1.0195329,1.319 2.4934721,0.6763 1.4739391,-0.6425 l -4.234375,-5.4727 c -0.2602394,-0.29 -0.6085188,-0.7436 -1.076172,-0.7578 z"
           style="font-size:medium;font-style:normal;font-variant:normal;font-weight:normal;font-stretch:normal;text-indent:0;text-align:start;text-decoration:none;line-height:normal;letter-spacing:normal;word-spacing:normal;text-transform:none;direction:ltr;block-progression:tb;writing-mode:lr-tb;text-anchor:start;baseline-shift:baseline;color:#000000;fill:#8ab000;fill-opacity:1;fill-rule:evenodd;stroke:none;visibility:visible;display:inline;overflow:visible;enable-background:accumulate;font-family:sans-serif" />
      </g>
      <g
         id="g4955">
        <path
           sodipodi:nodetypes="cc"
           inkscape:connector-curvature="0"
           id="path4945"
           d="m 2.5889342,1006.8622 4.25,5.5"
           style="fill:#8ab000;fill-opacity:1;fill-rule:evenodd;stroke:#769616;stroke-width:2.5;stroke-linecap:round;stroke-linejoin:miter;stroke-miterlimit:4;stroke-opacity:1;stroke-dasharray:none" />
        <path
           style="font-size:medium;font-style:normal;font-variant:normal;font-weight:normal;font-stretch:normal;text-indent:0;text-align:start;text-decoration:none;line-height:normal;letter-spacing:normal;word-spacing:normal;text-transform:none;direction:ltr;block-progression:tb;writing-mode:lr-tb;text-anchor:start;baseline-shift:baseline;color:#000000;fill:#ffffff;fill-opacity:0.29803922;fill-rule:evenodd;stroke:none;visibility:visible;display:inline;overflow:visible;enable-background:accumulate;font-family:sans-serif"
           d="m 2.6113281,1005.6094 c -0.4534623,0.012 -0.7616975,0.189 -0.9807462,0.4486 2.0269314,2.4089 2.368401,2.7916 5.1354735,6.2214 1.0195329,1.319 2.0816026,0.6373 1.0620696,-0.6817 l -4.25,-5.5 c -0.2289894,-0.3056 -0.5850813,-0.478 -0.9667969,-0.4883 z"
           id="path4947"
           inkscape:connector-curvature="0"
           sodipodi:nodetypes="cccccc" />
        <path
           style="font-size:medium;font-style:normal;font-variant:normal;font-weight:normal;font-stretch:normal;text-indent:0;text-align:start;text-decoration:none;line-height:normal;letter-spacing:normal;word-spacing:normal;text-transform:none;direction:ltr;block-progression:tb;writing-mode:lr-tb;text-anchor:start;baseline-shift:baseline;color:#000000;fill:#263238;fill-opacity:0.2;fill-rule:evenodd;stroke:none;visibility:visible;display:inline;overflow:visible;enable-background:accumulate;font-family:sans-serif"
           d="m 1.6220992,1006.0705 c -0.1238933,0.1479 -0.561176,0.8046 -0.02249,1.5562 l 4.25,5.5 c 1.0195329,1.319 1.1498748,-0.6123 1.1498748,-0.6123 0,0 -3.7344514,-4.51 -5.3773848,-6.4439 z"
           id="path4951"
           inkscape:connector-curvature="0"
           sodipodi:nodetypes="ccccc" />
        <path
           style="font-size:medium;font-style:normal;font-variant:normal;font-weight:normal;font-stretch:normal;text-indent:0;text-align:start;text-decoration:none;line-height:normal;letter-spacing:normal;word-spacing:normal;text-transform:none;direction:ltr;block-progression:tb;writing-mode:lr-tb;text-anchor:start;baseline-shift:baseline;color:#000000;fill:#8ab000;fill-opacity:1;fill-rule:evenodd;stroke:none;visibility:visible;display:inline;overflow:visible;enable-background:accumulate;font-family:sans-serif"
           d="m 2.3378905,1005.8443 c -0.438175,0 -0.959862,0.1416 -0.8242183,0.7986 0.103561,0.5016 4.6608262,6.0744 4.6608262,6.0744 1.0195329,1.319 2.4934721,0.6763 1.4739391,-0.6425 l -4.234375,-5.4727 c -0.2602394,-0.29 -0.6085188,-0.7436 -1.076172,-0.7578 z"
           id="path4925"
           inkscape:connector-curvature="0"
           sodipodi:nodetypes="cscccc" />
      </g>
      <g
         transform="translate(42,0)"
         id="g4967">
        <rect
           style="fill:#aeea00;fill-opacity:1;stroke:none"
           id="rect4144"
           width="38"
           height="13"
           x="-37"
           y="1010.3622"
           rx="3"
           ry="3" />
        <rect
           ry="3"
           rx="3"
           y="1013.3622"
           x="-37"
           height="10"
           width="38"
           id="rect4961"
           style="fill:#263238;fill-opacity:0.2;stroke:none" />
        <rect
           ry="3"
           rx="3"
           y="1010.3622"
           x="-37"
           height="10"
           width="38"
           id="rect4963"
           style="fill:#ffffff;fill-opacity:0.29803922;stroke:none" />
        <rect
           ry="2.5384617"
           rx="3"
           y="1011.3622"
           x="-37"
           height="11"
           width="38"
           id="rect4965"
           style="fill:#aeea00;fill-opacity:1;stroke:none" />
      </g>
      <g
         id="g4979">
        <rect
           style="fill:#1976d2;fill-opacity:1;stroke:none"
           id="rect4146"
           width="38"
           height="26"
           x="5"
           y="1024.3622"
           rx="3"
           ry="3" />
        <rect
           ry="3"
           rx="3"
           y="1037.3622"
           x="5"
           height="13"
           width="38"
           id="rect4973"
           style="fill:#263238;fill-opacity:0.2;stroke:none" />
        <rect
           ry="3"
           rx="3"
           y="1024.3622"
           x="5"
           height="13"
           width="38"
           id="rect4975"
           style="fill:#ffffff;fill-opacity:0.2;stroke:none" />
        <rect
           ry="2.7692308"
           rx="3"
           y="1025.3622"
           x="5"
           height="24"
           width="38"
           id="rect4977"
           style="fill:#1976d2;fill-opacity:1;stroke:none" />
      </g>
      <g
         transform="translate(0,1013.3622)"
         id="g4211">
        <path
           style="font-size:medium;font-style:normal;font-variant:normal;font-weight:normal;font-stretch:normal;text-indent:0;text-align:start;text-decoration:none;line-height:normal;letter-spacing:normal;word-spacing:normal;text-transform:none;direction:ltr;block-progression:tb;writing-mode:lr-tb;text-anchor:start;baseline-shift:baseline;color:#000000;fill:#0d47a1;fill-opacity:1;fill-rule:nonzero;stroke:none;visibility:visible;display:inline;overflow:visible;enable-background:accumulate;font-family:sans-serif"
           d="m 24,17.75 c -2.880662,0 -5.319789,1.984685 -6.033203,4.650391 l 3.212891,0 C 21.734004,21.415044 22.774798,20.75 24,20.75 c 1.812692,0 3.25,1.437308 3.25,3.25 0,1.812693 -1.437308,3.25 -3.25,3.25 -1.307381,0 -2.411251,-0.75269 -2.929688,-1.849609 l -3.154296,0 C 18.558263,28.166146 21.04791,30.25 24,30.25 c 3.434013,0 6.25,-2.815987 6.25,-6.25 0,-3.434012 -2.815987,-6.25 -6.25,-6.25 z"
           id="path4161"
           inkscape:connector-curvature="0" />
        <circle
           style="fill:none;stroke:#0d47a1;stroke-width:1.89999998;stroke-linecap:round;stroke-linejoin:miter;stroke-miterlimit:4;stroke-opacity:1;stroke-dasharray:none;stroke-dashoffset:0"
           id="path4209"
           cx="24"
           cy="24"
           r="9.5500002"
           d="m 33.55,24 c 0,5.274319 -4.275681,9.55 -9.55,9.55 -5.274319,0 -9.55,-4.275681 -9.55,-9.55 0,-5.274319 4.275681,-9.55 9.55,-9.55 5.274319,0 9.55,4.275681 9.55,9.55 z"
           sodipodi:cx="24"
           sodipodi:cy="24"
           sodipodi:rx="9.5500002"
           sodipodi:ry="9.5500002" />
      </g>
      <g
         id="g4989"
         transform="translate(0,0.50001738)">
        <ellipse
           cy="1016.4872"
           cx="14.375"
           id="circle4985"
           style="fill:#263238;fill-opacity:0.2;stroke:none"
           rx="3.375"
           ry="3.875"
           d="m 17.75,1016.4872 c 0,2.1401 -1.511039,3.875 -3.375,3.875 -1.863961,0 -3.375,-1.7349 -3.375,-3.875 0,-2.1401 1.511039,-3.875 3.375,-3.875 1.863961,0 3.375,1.7349 3.375,3.875 z"
           sodipodi:cx="14.375"
           sodipodi:cy="1016.4872"
           sodipodi:rx="3.375"
           sodipodi:ry="3.875" />
        <circle
           style="fill:#ffffff;fill-opacity:1;stroke:none"
           id="path4859"
           cx="14.375"
           cy="1016.9872"
           r="3.375"
           d="m 17.75,1016.9872 c 0,1.8639 -1.511039,3.375 -3.375,3.375 -1.863961,0 -3.375,-1.5111 -3.375,-3.375 0,-1.864 1.511039,-3.375 3.375,-3.375 1.863961,0 3.375,1.511 3.375,3.375 z"
           sodipodi:cx="14.375"
           sodipodi:cy="1016.9872"
           sodipodi:rx="3.375"
           sodipodi:ry="3.375" />
      </g>
      <g
         transform="translate(19.5,0.50001738)"
         id="g4171">
        <ellipse
           ry="3.875"
           rx="3.375"
           style="fill:#263238;fill-opacity:0.2;stroke:none"
           id="ellipse4175"
           cx="14.375"
           cy="1016.4872"
           d="m 17.75,1016.4872 c 0,2.1401 -1.511039,3.875 -3.375,3.875 -1.863961,0 -3.375,-1.7349 -3.375,-3.875 0,-2.1401 1.511039,-3.875 3.375,-3.875 1.863961,0 3.375,1.7349 3.375,3.875 z"
           sodipodi:cx="14.375"
           sodipodi:cy="1016.4872"
           sodipodi:rx="3.375"
           sodipodi:ry="3.875" />
        <circle
           r="3.375"
           cy="1016.9872"
           cx="14.375"
           id="circle4177"
           style="fill:#ffffff;fill-opacity:1;stroke:none"
           d="m 17.75,1016.9872 c 0,1.8639 -1.511039,3.375 -3.375,3.375 -1.863961,0 -3.375,-1.5111 -3.375,-3.375 0,-1.864 1.511039,-3.375 3.375,-3.375 1.863961,0 3.375,1.511 3.375,3.375 z"
           sodipodi:cx="14.375"
           sodipodi:cy="1016.9872"
           sodipodi:rx="3.375"
           sodipodi:ry="3.375" />
      </g>
    </g>
    <path
       inkscape:connector-curvature="0"
       id="path5128"
       d="m 2.3100098,1005.5986 a 0.95482259,0.95482259 0 0 0 -0.7727332,1.5499 l 2.7522949,3.5624 c -0.096993,0.2544 -0.1551393,0.5281 -0.1551393,0.8175 l 0,3.0551 0,2.1884 0,0.1029 c 0,1.2694 1.0219399,2.2914 2.2913451,2.2914 l 24.4410147,0 c 1.269405,0 2.291345,-1.022 2.291345,-2.2914 l 0,-3.0551 0,-2.1884 0,-0.1029 c 0,-0.2905 -0.05889,-0.5652 -0.156637,-0.8205 l 2.750806,-3.5594 a 0.95482259,0.95482259 0 0 0 -0.80107,-1.5484 0.95482259,0.95482259 0 0 0 -0.71008,0.3804 l -2.621024,3.3922 c -0.23694,-0.082 -0.487605,-0.1357 -0.75334,-0.1357 l -24.4410147,0 c -0.2662314,0 -0.5175156,0.053 -0.7548302,0.1357 l -2.6225208,-3.3922 a 0.95482259,0.95482259 0 0 0 -0.7384165,-0.3819 z m 4.1157675,14.3314 c -0.1586756,0 -0.3130207,0.016 -0.4624469,0.047 -1.0460067,0.2109 -1.8288982,1.1227 -1.8288982,2.2227 l 0,0.022 0,15.107 0,0.022 0,0.1462 c 0,1.2694 1.0219399,2.2913 2.2913451,2.2913 l 24.4410147,0 c 1.269405,0 2.291345,-1.0219 2.291345,-2.2913 l 0,-15.2756 0,-0.022 c 0,-1.1001 -0.782892,-2.0118 -1.828898,-2.2227 -0.149434,-0.03 -0.303772,-0.047 -0.462447,-0.047 l -24.4410147,0 z"
       style="font-size:medium;font-style:normal;font-variant:normal;font-weight:normal;font-stretch:normal;text-indent:0;text-align:start;text-decoration:none;line-height:normal;letter-spacing:normal;word-spacing:normal;text-transform:none;direction:ltr;block-progression:tb;writing-mode:lr-tb;text-anchor:start;baseline-shift:baseline;color:#000000;fill:url(#radialGradient5220);fill-opacity:1;fill-rule:evenodd;stroke:none;visibility:visible;display:inline;overflow:visible;enable-background:accumulate;font-family:sans-serif" />
    <g
       id="g5105"
       transform="translate(-63.462837,-10.429826)">
      <path
         style="fill:#aeea00;fill-opacity:1"
         inkscape:connector-curvature="0"
         d="m 106.34739,1049.0525 h -1.55682 v -4.1515 c 0,-1.1521 -0.9341,-2.0758 -2.07577,-2.0758 h -4.151519 v -1.5568 a 2.5947022,2.5947022 0 0 0 -2.594702,-2.5947 2.5947022,2.5947022 0 0 0 -2.594702,2.5947 v 1.5568 h -4.151522 a 2.0757614,2.0757614 0 0 0 -2.075761,2.0758 v 3.9439 h 1.556821 c 1.55682,0 2.802277,1.2455 2.802277,2.8023 0,1.5568 -1.245457,2.8023 -2.802277,2.8023 h -1.556821 v 3.9439 a 2.0757614,2.0757614 0 0 0 2.075761,2.0758 h 3.943946 v -1.5568 c 0,-1.5568 1.245457,-2.8023 2.802278,-2.8023 1.556821,0 2.802278,1.2455 2.802278,2.8023 v 1.5568 h 3.943943 a 2.0757614,2.0757614 0 0 0 2.07577,-2.0758 v -4.1515 h 1.55682 a 2.5947022,2.5947022 0 0 0 2.5947,-2.5947 2.5947022,2.5947022 0 0 0 -2.5947,-2.5947 z"
         id="path4142-6" />
      <path
         style="fill:#263238;fill-opacity:0.2"
         inkscape:connector-curvature="0"
         d="m 106.29783,1048.977 h -1.55682 v -4.1515 c 0,-1.1521 -0.93409,-2.0758 -2.07576,-2.0758 h -4.151525 v -1.5568 a 2.5947023,2.5947023 0 0 0 -2.594702,-2.5947 2.5947023,2.5947023 0 0 0 -2.594702,2.5947 v 1.5568 h -4.151522 a 2.0757614,2.0757614 0 0 0 -2.075761,2.0758 v 3.9439 h 1.556821 c 1.55682,0 2.802277,1.2455 2.802277,2.8023 0,1.5568 -1.245457,2.8023 -2.802277,2.8023 h -1.556821 v 3.9439 a 2.0757614,2.0757614 0 0 0 2.075761,2.0758 h 3.943946 v -1.5568 c 0,-1.5568 1.245457,-2.8023 2.802278,-2.8023 1.556821,0 2.802278,1.2455 2.802278,2.8023 v 1.5568 h 3.943949 a 2.0757614,2.0757614 0 0 0 2.07576,-2.0758 v -4.1515 h 1.55682 a 2.5947023,2.5947023 0 0 0 2.5947,-2.5947 2.5947023,2.5947023 0 0 0 -2.5947,-2.5947 z"
         id="path4142-6-5" />
      <path
         style="fill:#aeea00;fill-opacity:1"
         inkscape:connector-curvature="0"
         d="m 104.63448,1049.1066 h -1.43578 v -3.8287 c 0,-1.0625 -0.86147,-1.9144 -1.91438,-1.9144 h -3.828749 v -1.4357 a 2.3929704,2.3929704 0 0 0 -2.39297,-2.393 2.3929704,2.3929704 0 0 0 -2.392971,2.393 v 1.4357 h -3.828751 a 1.9143763,1.9143763 0 0 0 -1.914376,1.9144 v 3.6374 h 1.435782 c 1.435781,0 2.584407,1.1486 2.584407,2.5843 0,1.4359 -1.148626,2.5845 -2.584407,2.5845 h -1.435782 v 3.6373 a 1.9143763,1.9143763 0 0 0 1.914376,1.9144 h 3.637314 v -1.4359 c 0,-1.4357 1.148626,-2.5843 2.584408,-2.5843 1.435782,0 2.584408,1.1486 2.584408,2.5843 v 1.4359 h 3.637311 a 1.9143763,1.9143763 0 0 0 1.91438,-1.9144 v -3.8287 h 1.43578 a 2.3929704,2.3929704 0 0 0 2.39297,-2.3931 2.3929704,2.3929704 0 0 0 -2.39297,-2.393 z"
         id="path4142" />
    </g>
  </g>
</svg>
