<?xml version="1.0" encoding="UTF-8" standalone="no"?>
<!-- Created with Inkscape (http://www.inkscape.org/) -->

<svg
   xmlns:dc="http://purl.org/dc/elements/1.1/"
   xmlns:cc="http://creativecommons.org/ns#"
   xmlns:rdf="http://www.w3.org/1999/02/22-rdf-syntax-ns#"
   xmlns:svg="http://www.w3.org/2000/svg"
   xmlns="http://www.w3.org/2000/svg"
   xmlns:sodipodi="http://sodipodi.sourceforge.net/DTD/sodipodi-0.dtd"
   xmlns:inkscape="http://www.inkscape.org/namespaces/inkscape"
   width="48"
   height="48"
   viewBox="0 0 48.000001 48.000001"
   id="svg4230"
   version="1.1"
   inkscape:version="0.91 r13725"
   sodipodi:docname="updates_notification.svg">
  <defs
     id="defs4232" />
  <sodipodi:namedview
     id="base"
     pagecolor="#c0c0c0"
     bordercolor="#666666"
     borderopacity="1.0"
     inkscape:pageopacity="0"
     inkscape:pageshadow="2"
     inkscape:zoom="11.313709"
     inkscape:cx="40.012901"
     inkscape:cy="20.641427"
     inkscape:document-units="px"
     inkscape:current-layer="g4135"
     showgrid="true"
     units="px"
     inkscape:window-width="1920"
     inkscape:window-height="1009"
     inkscape:window-x="0"
     inkscape:window-y="34"
     inkscape:window-maximized="1"
     gridtolerance="10000" />
  <metadata
     id="metadata4235">
    <rdf:RDF>
      <cc:Work
         rdf:about="">
        <dc:format>image/svg+xml</dc:format>
        <dc:type
           rdf:resource="http://purl.org/dc/dcmitype/StillImage" />
        <dc:title></dc:title>
        <cc:license
           rdf:resource="http://creativecommons.org/licenses/by-sa/3.0/" />
      </cc:Work>
      <cc:License
         rdf:about="http://creativecommons.org/licenses/by-sa/3.0/">
        <cc:permits
           rdf:resource="http://creativecommons.org/ns#Reproduction" />
        <cc:permits
           rdf:resource="http://creativecommons.org/ns#Distribution" />
        <cc:requires
           rdf:resource="http://creativecommons.org/ns#Notice" />
        <cc:requires
           rdf:resource="http://creativecommons.org/ns#Attribution" />
        <cc:permits
           rdf:resource="http://creativecommons.org/ns#DerivativeWorks" />
        <cc:requires
           rdf:resource="http://creativecommons.org/ns#ShareAlike" />
      </cc:License>
    </rdf:RDF>
  </metadata>
  <g
     inkscape:label="Layer 1"
     inkscape:groupmode="layer"
     id="layer1"
     transform="translate(0,-1004.3622)">
    <g
       id="g4135">
      <path
         id="path4140"
         transform="translate(0,1004.3622)"
         d="M 2.6132812 1.2363281 A 1.250125 1.250125 0 0 0 1.6015625 3.265625 L 5.2050781 7.9296875 C 5.0780881 8.2627875 5.0019531 8.6212 5.0019531 9 L 5.0019531 13 L 5.0019531 15.865234 L 5.0019531 16 C 5.0019531 17.662 6.3399531 19 8.0019531 19 L 40.001953 19 C 41.663953 19 43.001953 17.662 43.001953 16 L 43.001953 12 L 43.001953 9.1347656 L 43.001953 9 C 43.001953 8.6197 42.924853 8.2599813 42.796875 7.9257812 L 46.398438 3.265625 A 1.250125 1.250125 0 0 0 45.349609 1.2382812 A 1.250125 1.250125 0 0 0 44.419922 1.7363281 L 40.988281 6.1777344 C 40.678061 6.0698344 40.349873 6 40.001953 6 L 8.0019531 6 C 7.6533831 6 7.3243819 6.0690344 7.0136719 6.1777344 L 3.5800781 1.7363281 A 1.250125 1.250125 0 0 0 2.6132812 1.2363281 z M 14.375 9.75 A 3.375 3.375 0 0 1 17.75 13.125 A 3.375 3.375 0 0 1 14.375 16.5 A 3.375 3.375 0 0 1 11 13.125 A 3.375 3.375 0 0 1 14.375 9.75 z M 33.875 9.75 A 3.375 3.375 0 0 1 37.25 13.125 A 3.375 3.375 0 0 1 33.875 16.5 A 3.375 3.375 0 0 1 30.5 13.125 A 3.375 3.375 0 0 1 33.875 9.75 z "
         style="color:#000000;font-style:normal;font-variant:normal;font-weight:normal;font-stretch:normal;font-size:medium;line-height:normal;font-family:sans-serif;text-indent:0;text-align:start;text-decoration:none;text-decoration-line:none;text-decoration-style:solid;text-decoration-color:#000000;letter-spacing:normal;word-spacing:normal;text-transform:none;direction:ltr;block-progression:tb;writing-mode:lr-tb;baseline-shift:baseline;text-anchor:start;white-space:normal;clip-rule:nonzero;display:inline;overflow:visible;visibility:visible;opacity:1;isolation:auto;mix-blend-mode:normal;color-interpolation:sRGB;color-interpolation-filters:linearRGB;solid-color:#000000;solid-opacity:1;fill:#ffffff;fill-opacity:1;fill-rule:evenodd;stroke:none;stroke-width:2.5;stroke-linecap:round;stroke-linejoin:miter;stroke-miterlimit:4;stroke-dasharray:none;stroke-dashoffset:0;stroke-opacity:1;color-rendering:auto;image-rendering:auto;shape-rendering:auto;text-rendering:auto;enable-background:accumulate" />
      <path
         style="color:#000000;font-style:normal;font-variant:normal;font-weight:normal;font-stretch:normal;font-size:medium;line-height:normal;font-family:sans-serif;text-indent:0;text-align:start;text-decoration:none;text-decoration-line:none;text-decoration-style:solid;text-decoration-color:#000000;letter-spacing:normal;word-spacing:normal;text-transform:none;direction:ltr;block-progression:tb;writing-mode:lr-tb;baseline-shift:baseline;text-anchor:start;white-space:normal;clip-rule:nonzero;display:inline;overflow:visible;visibility:visible;opacity:1;isolation:auto;mix-blend-mode:normal;color-interpolation:sRGB;color-interpolation-filters:linearRGB;solid-color:#000000;solid-opacity:1;fill:#ffffff;fill-opacity:1;fill-rule:evenodd;stroke:none;stroke-width:2.5;stroke-linecap:round;stroke-linejoin:miter;stroke-miterlimit:4;stroke-dasharray:none;stroke-dashoffset:0;stroke-opacity:1;color-rendering:auto;image-rendering:auto;shape-rendering:auto;text-rendering:auto;enable-background:accumulate"
         d="M 8.0019531 20 C 7.7942031 20 7.5921244 20.020547 7.3964844 20.060547 C 6.0269744 20.336647 5.0019531 21.530403 5.0019531 22.970703 L 5.0019531 23 L 5.0019531 42.779297 L 5.0019531 42.804688 L 5.0019531 42.996094 C 5.0019531 44.658094 6.3399531 45.996094 8.0019531 45.996094 L 40.001953 45.996094 C 41.663953 45.996094 43.001953 44.658094 43.001953 42.996094 L 43.001953 22.996094 L 43.001953 22.970703 C 43.001953 21.530403 41.976932 20.336647 40.607422 20.060547 C 40.411772 20.021547 40.209703 20 40.001953 20 L 8.0019531 20 z M 23.996094 22.998047 C 26.758594 22.998047 29.246094 24.123047 31.058594 25.935547 L 33.996094 22.998047 L 33.996094 31.748047 L 25.246094 31.748047 L 29.271484 27.722656 C 27.921484 26.360156 26.071094 25.498047 23.996094 25.498047 C 19.858594 25.498047 16.496094 28.860547 16.496094 32.998047 C 16.496094 37.135547 19.858594 40.498047 23.996094 40.498047 C 27.258594 40.498047 30.033594 38.410547 31.058594 35.498047 L 33.658203 35.498047 C 32.545703 39.810547 28.658594 42.998047 23.996094 42.998047 C 18.471094 42.998047 14.007812 38.523047 14.007812 32.998047 C 14.007813 27.473047 18.471094 22.998047 23.996094 22.998047 z "
         transform="translate(0,1004.3622)"
         id="path5128" />
    </g>
  </g>
</svg>
